<?xml version="1.0" encoding="UTF-8"?>
<!DOCTYPE svg PUBLIC "-//W3C//DTD SVG 1.1//EN" "http://www.w3.org/Graphics/SVG/1.1/DTD/svg11.dtd">
<!-- Creator: CorelDRAW X8 -->
<svg xmlns="http://www.w3.org/2000/svg" xml:space="preserve" width="106.316mm" height="85.3012mm" version="1.1" style="shape-rendering:geometricPrecision; text-rendering:geometricPrecision; image-rendering:optimizeQuality; fill-rule:evenodd; clip-rule:evenodd"
viewBox="0 0 10632 8530"
 xmlns:xlink="http://www.w3.org/1999/xlink">
 <defs>
  <style type="text/css">
   <![CDATA[
    .fil0 {fill:#FEFEFE}
    .fil1 {fill:#3D6DEB}
   ]]>
  </style>
 </defs>
 <g id="Vrstva_x0020_1">
  <metadata id="CorelCorpID_0Corel-Layer"/>
  <g id="_2450271763168">
   <path class="fil0" d="M1983 4258c2,990 619,1834 1492,2170l0 -4342c-873,338 -1490,1182 -1492,2172z"/>
   <path class="fil0" d="M9276 1193c-823,-758 -1949,-1193 -3091,-1193l-869 0 -1020 0c-2449,0 -4296,1848 -4296,4299 0,2333 1920,4231 4279,4231l1037 0 867 0 21 0c0,0 0,0 1,0 1116,0 2239,-451 3079,-1239 869,-814 1348,-1876 1348,-2992 0,-1198 -482,-2302 -1356,-3106zm-3960 6325c-319,99 -657,153 -1008,153 -1882,0 -3412,-1531 -3412,-3413 0,-1882 1530,-3413 3412,-3413 351,0 689,53 1008,152 1390,431 2403,1730 2403,3261 0,1531 -1013,2829 -2403,3260z"/>
   <path class="fil0" d="M5316 2163c-58,-28 -116,-54 -176,-77l0 4342c60,-23 118,-49 176,-77 779,-376 1316,-1171 1318,-2093 -2,-922 -539,-1719 -1318,-2095z"/>
  </g>
  <path class="fil1" d="M5316 997c-319,-99 -657,-152 -1008,-152 -1882,0 -3412,1531 -3412,3413 0,1882 1530,3412 3412,3412 351,0 689,-53 1008,-152 1390,-431 2403,-1729 2403,-3260 0,-1531 -1013,-2830 -2403,-3261zm-1841 5431c-873,-335 -1490,-1180 -1492,-2170 2,-990 619,-1834 1492,-2172l0 4342zm1841 -77c-58,28 -116,54 -176,77l0 -4342c60,23 118,49 176,77 779,376 1316,1173 1318,2095 -2,922 -539,1717 -1318,2093z"/>
 </g>
</svg>
