<?xml version="1.0" encoding="UTF-8"?>
<!DOCTYPE svg PUBLIC "-//W3C//DTD SVG 1.1//EN" "http://www.w3.org/Graphics/SVG/1.1/DTD/svg11.dtd">
<!-- Creator: CorelDRAW X7 -->
<svg xmlns="http://www.w3.org/2000/svg" xml:space="preserve" width="178.997mm" height="54.8347mm" version="1.1" style="shape-rendering:geometricPrecision; text-rendering:geometricPrecision; image-rendering:optimizeQuality; fill-rule:evenodd; clip-rule:evenodd"
viewBox="0 0 17900 5484"
 xmlns:xlink="http://www.w3.org/1999/xlink">
 <defs>
  <style type="text/css">
   <![CDATA[
    .fil1 {fill:#F2AE14}
    .fil0 {fill:white}
   ]]>
  </style>
 </defs>
 <g id="Vrstva_x0020_1">
  <metadata id="CorelCorpID_0Corel-Layer"/>
  <g>
   <path class="fil0" d="M6323 5421l905 -5312 1448 0 -906 5312 -1447 0zm6679 -5198c-287,-107 -737,-223 -1298,-223 -1431,0 -2439,720 -2447,1753 -8,764 719,1189 1268,1443 564,261 754,427 751,659 -4,356 -450,519 -866,519 -580,0 -888,-80 -1363,-279l-187 -84 -203 1189c338,148 963,277 1613,284 1522,0 2510,-713 2521,-1815 6,-605 -380,-1065 -1216,-1444 -506,-246 -816,-410 -812,-658 0,-221 262,-457 829,-457 473,-8 816,96 1084,203l129 62 197 -1152 0 0zm3726 -114l-1119 0c-347,0 -606,94 -758,440l-2151 4868 1521 0c0,0 248,-654 305,-798 166,0 1643,2 1854,2 43,186 176,796 176,796l1344 0 -1172 -5309 0 1zm-1775 3430c119,-306 577,-1485 577,-1485 -9,14 118,-308 192,-507l97 458c0,0 278,1268 336,1534l-1202 0zm-9859 -3430l-1418 3622 -151 -736c-264,-849 -1086,-1768 -2005,-2228l1296 4645 1532 -1 2280 -5303 -1534 0 0 1zm0 0l0 0 0 0z"/>
  </g>
  <g>
   <path class="fil1" d="M2353 108l-2335 0 -18 111c1816,440 3018,1502 3518,2779l-508 -2441c-88,-337 -342,-437 -657,-449l0 0zm0 0l0 0 0 0z"/>
  </g>
 </g>
</svg>
