<?xml version="1.0" encoding="UTF-8"?>
<!DOCTYPE svg PUBLIC "-//W3C//DTD SVG 1.1//EN" "http://www.w3.org/Graphics/SVG/1.1/DTD/svg11.dtd">
<!-- Creator: CorelDRAW X8 -->
<svg xmlns="http://www.w3.org/2000/svg" xml:space="preserve" width="181.222mm" height="62.9553mm" version="1.1" style="shape-rendering:geometricPrecision; text-rendering:geometricPrecision; image-rendering:optimizeQuality; fill-rule:evenodd; clip-rule:evenodd"
viewBox="0 0 18116 6293"
 xmlns:xlink="http://www.w3.org/1999/xlink">
 <defs>
  <style type="text/css">
   <![CDATA[
    .fil1 {fill:#306FC5}
    .fil0 {fill:white}
   ]]>
  </style>
 </defs>
 <g id="Vrstva_x0020_1">
  <metadata id="CorelCorpID_0Corel-Layer"/>
  <polygon class="fil0" points="1564,1552 2196,1552 1880,747 "/>
  <polygon class="fil0" points="4926,4253 4926,4627 5989,4627 5989,5029 4926,5029 4926,5460 6104,5460 6650,4857 6133,4253 "/>
  <polygon class="fil0" points="13231,747 12886,1552 13547,1552 "/>
  <polygon class="fil0" points="8001,5690 8001,4052 7254,4857 "/>
  <path class="fil0" d="M9409 4512c-29,-173 -144,-259 -316,-259l-604 0 0 517 633 0c172,0 287,-86 287,-258z"/>
  <path class="fil0" d="M11420 4713c58,-29 87,-115 87,-201 29,-115 -29,-173 -87,-201 -57,-29 -143,-29 -229,-29l-575 0 0 460 575 0c86,0 172,0 229,-29z"/>
  <path class="fil0" d="M15558 0l0 345 -172 -345 -1350 0 0 345 -173 -345 -1839 0c-316,0 -575,58 -805,172l0 -172 -1293 0 0 29 0 143c-143,-114 -316,-172 -546,-172l-4626 0 -316 718 -317 -718 -1034 0 -431 0 0 345 -144 -345 -29 0 -1235 0 -575 1351 -661 1465 -12 29 12 0 1466 0 18 0 10 -29 173 -431 374 0 172 460 1667 0 0 -29 0 -316 143 345 834 0 143 -345 0 316 0 29 661 0 3305 0 29 0 0 -747 57 0c58,0 58,0 58,86l0 632 2069 0 0 -172c172,86 431,172 775,172l863 0 172 -460 402 0 173 460 1666 0 0 -287 0 -144 259 431 57 0 29 0 1265 0 0 -2816 -1293 0 0 0 -1 0zm-9741 2414l-288 0 -172 0 0 -172 0 -1409 -29 66 0 0 -668 1515 -21 0 -154 0 -249 0 -689 -1581 0 1581 -977 0 -201 -431 -978 0 -201 431 -505 0 850 -2012 719 0 804 1926 0 -1926 173 0 589 0 13 29 1 0 363 789 260 592 9 -30 575 -1380 776 0 0 2012 0 0 0 0zm1983 -1581l-1121 0 0 374 1092 0 0 402 -1092 0 0 403 1121 0 0 431 -1609 0 0 -2041 1609 0 0 431 0 0zm2049 741c1,1 2,2 3,2 11,12 20,23 28,34 55,72 100,180 102,337 0,3 0,5 0,8 0,2 1,3 1,5 0,1 0,1 0,2 0,16 1,32 1,50l0 402 -431 0 0 -230c0,-115 0,-287 -87,-402 -27,-27 -54,-45 -84,-58 -43,-28 -125,-28 -260,-28l-518 0 0 718 -488 0 0 -2012 1092 0c258,0 431,0 575,87 140,84 225,224 229,446 -7,306 -203,474 -344,531 0,0 95,19 181,108zm968 840l-488 0 0 -2012 488 0 0 2012zm5604 0l-633 0 -919 -1523 0 1264 -3 -3 0 263 -486 0 0 -1 -488 0 -173 -431 -1005 0 -173 460 -546 0c-230,0 -517,-58 -689,-230 -173,-173 -259,-402 -259,-776 0,-287 57,-575 259,-805 143,-172 402,-230 718,-230l460 0 0 431 -460 0c-172,0 -259,29 -374,115 -86,87 -143,259 -143,460 0,230 28,374 143,489 87,86 202,115 345,115l201 0 661 -1581 288 0 431 0 804 1926 0 -99 0 -649 0 -57 0 -1121 719 0 833 1408 0 -1408 489 0 0 1983 0 0 0 0 0 0z"/>
  <path class="fil0" d="M9440 1240c8,-9 16,-19 22,-31 26,-41 56,-115 40,-216 -1,-10 -2,-18 -4,-27 -1,-2 -1,-4 -1,-6l-1 0c-14,-49 -51,-80 -87,-98 -58,-29 -144,-29 -230,-29l-575 0 0 460 575 0c86,0 172,0 230,-29 9,-4 16,-10 24,-17l0 1c0,0 3,-3 7,-8z"/>
  <path class="fil0" d="M18116 5288c0,-201 -57,-403 -143,-546l0 -1293 -2 0 0 -87c0,0 -1204,0 -1384,0 -179,0 -396,173 -396,173l0 -173 -1322 0c-201,0 -460,58 -575,173l0 -173 -2356 0 0 87 0 86c-172,-144 -489,-173 -632,-173l-1552 0 0 87 0 86c-144,-144 -489,-173 -661,-173l-1724 0 -403 431 -373 -431 -121 0 -195 0 -2270 0 0 86 0 227 0 2590 2528 0 416 -416 360 416 29 0 1457 0 66 0 29 0 28 0 0 -288 0 -373 144 0c201,0 460,0 661,-87l0 719 0 57 1293 0 0 -57 0 -690 58 0c86,0 86,0 86,86l0 604 0 57 3908 0c259,0 517,-57 661,-172l0 115 0 57 1236 0c258,0 517,-28 689,-143 265,-159 432,-440 456,-775 2,-10 3,-20 4,-30l-2 -2c1,-18 2,-37 2,-55zm-9052 -173l-575 0 0 86 0 173 0 172 0 316 -944 0 -550 -632 -2 2 -27 -31 -632 661 -1839 0 0 -2011 1868 0 510 559 108 117 14 -15 604 -661 1523 0c295,0 626,73 752,374 15,59 23,125 23,201 0,574 -402,689 -833,689zm2874 -29c57,86 86,202 86,374l0 402 -488 0 0 -258c0,-115 0,-316 -87,-403 -57,-86 -172,-86 -344,-86l-518 0 0 747 -488 0 0 -2040 1092 0c229,0 431,0 575,86 143,87 258,230 258,460 0,316 -201,489 -345,546 144,57 230,115 259,172zm1983 -833l-1121 0 0 374 1092 0 0 402 -1092 0 0 402 1121 0 0 431 -1610 0 0 -2040 1610 0 0 431zm1207 1609l-920 0 0 -431 920 0c86,0 143,0 201,-57 29,-29 57,-86 57,-144 0,-57 -28,-115 -57,-143 -29,-29 -87,-58 -173,-58 -460,-29 -1006,0 -1006,-632 0,-287 173,-604 690,-604l948 0 0 489 -890 0c-87,0 -144,0 -202,29 -57,28 -57,86 -57,143 0,87 57,115 115,144 57,29 115,29 172,29l259 0c259,0 431,57 546,172 86,86 144,230 144,431 0,431 -259,632 -747,632zm2471 -201c-115,115 -316,201 -604,201l-919 0 0 -431 919 0c87,0 144,0 202,-57 28,-29 57,-86 57,-144 0,-57 -29,-115 -57,-143 -29,-29 -87,-58 -173,-58 -459,-29 -1006,0 -1006,-632 0,-273 157,-520 542,-593 46,-7 95,-11 148,-11l948 0 0 489 -632 0 -230 0 -28 0c-87,0 -144,0 -201,29 -29,28 -58,86 -58,143 0,87 29,115 115,144 57,29 115,29 172,29l29 0 230 0c125,0 220,15 307,46 80,28 343,146 402,454 6,32 9,66 9,103 0,173 -57,316 -172,431z"/>
 </g>
 <g id="Vrstva_x0020_2">
  <metadata id="CorelCorpID_1Corel-Layer"/>
  <path class="fil1" d="M3058 2328l-804 -1926 -719 0 -850 2012 505 0 201 -431 978 0 201 431 977 0 0 -1581 689 1581 424 0 668 -1515 0 0 29 -66 0 1581 460 0 0 -2012 -776 0 -575 1380 -9 30 -260 -592 -363 -789 -1 0 -13 -29 -762 0 0 1926zm-862 -776l-632 0 316 -805 316 805z"/>
  <path class="fil1" d="M4495 3851l0 2011 1839 0 632 -661 27 31 2 -2 550 632 944 0 0 -316 0 -172 0 -173 0 -86 575 0c431,0 833,-115 833,-689 0,-76 -8,-142 -23,-201 -126,-301 -457,-374 -752,-374l-1523 0 -604 661 -14 15 -108 -117 -510 -559 -1868 0zm431 776l0 -374 1207 0 517 604 -546 603 -1178 0 0 -431 1063 0 0 -402 -1063 0zm3075 1063l-747 -833 747 -805 0 1638zm488 -920l0 -517 604 0c172,0 287,86 316,259 0,172 -115,258 -287,258l-633 0z"/>
  <path class="fil1" d="M10099 3822l0 2040 488 0 0 -747 518 0c172,0 287,0 344,86 87,87 87,288 87,403l0 258 488 0 0 -402c0,-172 -29,-288 -86,-374 -29,-57 -115,-115 -259,-172 144,-57 345,-230 345,-546 0,-230 -115,-373 -258,-460 -144,-86 -346,-86 -575,-86l-1092 0zm1321 891c-57,29 -143,29 -229,29l-575 0 0 -460 575 0c86,0 172,0 229,29 58,28 116,86 87,201 0,86 -29,172 -87,201z"/>
  <polygon class="fil1" points="12311,3822 12311,5862 13921,5862 13921,5431 12800,5431 12800,5029 13892,5029 13892,4627 12800,4627 12800,4253 13921,4253 13921,3822 "/>
  <path class="fil1" d="M14150 4397c0,632 546,603 1006,632 86,0 144,29 173,58 29,28 57,86 57,143 0,58 -28,115 -57,144 -58,57 -115,57 -201,57l-920 0 0 431 920 0c488,0 747,-201 747,-632 0,-201 -58,-345 -144,-431 -115,-115 -287,-172 -546,-172l-259 0c-57,0 -115,0 -172,-29 -58,-29 -115,-57 -115,-144 0,-57 0,-115 57,-143 58,-29 115,-29 202,-29l890 0 0 -489 -948 0c-517,0 -690,317 -690,604z"/>
  <path class="fil1" d="M16018 4397c0,632 547,603 1006,632 86,0 144,29 173,58 28,28 57,86 57,143 0,58 -29,115 -57,144 -58,57 -115,57 -202,57l-919 0 0 431 919 0c288,0 489,-86 604,-201 115,-115 172,-258 172,-431 0,-37 -3,-71 -9,-103 -59,-308 -322,-426 -402,-454 -87,-31 -182,-46 -307,-46l-230 0 -29 0c-57,0 -115,0 -172,-29 -86,-29 -115,-57 -115,-144 0,-57 29,-115 58,-143 57,-29 114,-29 201,-29l28 0 230 0 632 0 0 -489 -948 0c-53,0 -102,4 -148,11 -385,73 -542,320 -542,593z"/>
  <polygon class="fil1" points="7771,1609 7771,1207 6679,1207 6679,833 7800,833 7800,402 6191,402 6191,2443 7800,2443 7800,2012 6679,2012 6679,1609 "/>
  <path class="fil1" d="M8116 402l0 2012 488 0 0 -718 518 0c135,0 217,0 260,28 30,13 57,31 84,58 87,115 87,287 87,402l0 230 431 0 0 -402c0,-162 -20,-288 -104,-402l-31 -36c-86,-89 -181,-108 -181,-108 141,-57 337,-225 344,-531 -4,-222 -89,-362 -229,-446 -144,-87 -317,-87 -575,-87l-1092 0zm1063 891l-575 0 0 -460 575 0c86,0 172,0 230,29 36,18 73,49 87,98l1 0c0,2 0,4 1,6 2,9 3,17 4,27 16,101 -14,175 -40,216 -6,12 -14,22 -22,31l-7 8 0 -1c-8,7 -15,13 -24,17 -58,29 -144,29 -230,29z"/>
  <polygon class="fil1" points="10329,402 10329,2414 10817,2414 10817,402 "/>
  <path class="fil1" d="M11047 1437c0,374 86,603 259,776 172,172 459,230 689,230l546 0 173 -460 1005 0 173 431 488 0 0 1 486 0 0 -263 3 3 0 -1264 919 1523 633 0 0 -1983 -489 0 0 1408 -833 -1408 -719 0 0 1926 -804 -1926 -719 0 -661 1581 -201 0c-143,0 -258,-29 -345,-115 -115,-115 -143,-259 -143,-489 0,-201 57,-373 143,-460 115,-86 202,-115 374,-115l460 0 0 -431 -460 0c-316,0 -575,58 -718,230 -202,230 -259,518 -259,805zm1839 115l345 -805 316 805 -661 0z"/>
 </g>
</svg>
