<?xml version="1.0" encoding="UTF-8"?>
<!DOCTYPE svg PUBLIC "-//W3C//DTD SVG 1.1//EN" "http://www.w3.org/Graphics/SVG/1.1/DTD/svg11.dtd">
<!-- Creator: CorelDRAW X8 -->
<svg xmlns="http://www.w3.org/2000/svg" xml:space="preserve" width="178.182mm" height="28.6253mm" version="1.1" style="shape-rendering:geometricPrecision; text-rendering:geometricPrecision; image-rendering:optimizeQuality; fill-rule:evenodd; clip-rule:evenodd"
viewBox="0 0 18134 2913"
 xmlns:xlink="http://www.w3.org/1999/xlink">
 <defs>
  <style type="text/css">
   <![CDATA[
    .fil1 {fill:#F47216}
    .fil0 {fill:white}
   ]]>
  </style>
 </defs>
 <g id="Vrstva_x0020_1">
  <metadata id="CorelCorpID_0Corel-Layer"/>
  <path class="fil0" d="M7173 19c244,0 449,49 698,168l0 628c-236,-217 -440,-308 -711,-308 -532,0 -951,415 -951,941 0,554 406,944 977,944 258,0 458,-86 685,-300l0 629c-258,114 -467,160 -711,160 -864,0 -1535,-625 -1535,-1429 0,-796 689,-1433 1548,-1433l0 0zm-2682 17c319,0 611,103 855,304l-297 366c-148,-156 -287,-222 -457,-222 -245,0 -423,131 -423,304 0,147 100,226 440,344 646,222 837,419 837,854 0,530 -414,899 -1003,899 -432,0 -746,-160 -1007,-521l366 -332c131,238 349,365 620,365 253,0 440,-164 440,-386 0,-115 -57,-214 -170,-283 -57,-33 -170,-83 -392,-156 -533,-181 -716,-374 -716,-751 0,-448 393,-785 907,-785zm6483 48l620 0 775 1839 786 -1839 615 0 -1257 2808 -305 0 -1234 -2808zm-10974 4l833 0c920,0 1561,563 1561,1371 0,403 -196,793 -528,1051 -279,218 -597,316 -1038,316l-828 0 0 -2738zm2655 0l567 0 0 2738 -567 0 0 -2738zm11371 0l1609 0 0 464 -1042 0 0 608 1004 0 0 464 -1004 0 0 739 1042 0 0 463 -1609 0 0 -2738 0 0zm1985 0l841 0c654,0 1029,296 1029,809 0,419 -235,694 -662,776l915 1153 -698 0 -785 -1100 -74 0 0 1100 -566 0 0 -2738zm566 431l0 830 166 0c362,0 554,-148 554,-424 0,-266 -192,-406 -545,-406l-175 0zm-16010 33l0 1811 152 0c367,0 598,-66 776,-218 197,-164 315,-427 315,-690 0,-262 -118,-517 -315,-681 -187,-160 -409,-222 -776,-222l-152 0z"/>
  <path class="fil1" d="M9603 0c855,0 1547,651 1547,1456l0 1c0,804 -692,1456 -1547,1456 -854,0 -1547,-652 -1547,-1456l0 -1c0,-805 693,-1456 1547,-1456l0 0z"/>
 </g>
</svg>
